Coordinates
version=1
nRows=7
nColumns=46
inDegrees=yes

Units are S.I. units (second, meters, Newtons, ...)
Angles are in degrees.

endheader
time	pelvis_tilt	pelvis_list	pelvis_rotation	pelvis_tx	pelvis_ty	pelvis_tz	bb_angle	bb_tx	bb_ty	bb_tz	hip_flexion_r	hip_adduction_r	hip_rotation_r	knee_angle_r	knee_angle_r_beta	ankle_angle_r	subtalar_angle_r	mtp_angle_r	crank_angle_r	hip_flexion_l	hip_adduction_l	hip_rotation_l	knee_angle_l	knee_angle_l_beta	ankle_angle_l	subtalar_angle_l	mtp_angle_l	crank_angle_l	lumbar_extension	lumbar_bending	lumbar_rotation	arm_flex_r	arm_add_r	arm_rot_r	elbow_flex_r	pro_sup_r	wrist_flex_r	wrist_dev_r	arm_flex_l	arm_add_l	arm_rot_l	elbow_flex_l	pro_sup_l	wrist_flex_l	wrist_dev_l
      0.00000000	     -7.59475493	     -4.31263126	     -2.39244196	      0.17357356	      1.04743210	     -0.32091644	      0.00000000	      0.50000000	      0.00000000	      0.25000000	     79.73469693	     -0.03076945	      2.23566886	     93.94961336	      1.63973008	     15.76142428	     -6.50135263	      0.00000000	      0.00000000	     45.55271930	    -12.25696047	     -0.65945151	     71.84582231	      1.25394615	    -14.01802838	    -10.93315545	      0.00000000	      0.00000000	    -57.26664440	     -0.25995745	      5.87642396	     89.65444359	     -1.37296747	     42.25230763	     15.38111068	     19.97038293	      0.00000000	      0.00000000	     89.28388414	      1.16550690	     40.10959534	     16.60490343	     24.65995274	      0.00000000	      0.00000000
      0.00500000	     -7.56802776	     -4.26032293	     -2.41424598	      0.17364148	      1.04742516	     -0.32089957	      0.00000000	      0.50000000	      0.00000000	      0.25000000	     79.72953850	     -0.03687478	      2.28622243	     93.97032146	      1.64009151	     15.73080250	     -6.46253880	      0.00000000	      0.00000000	     45.49552648	    -12.22791846	     -0.72267472	     71.86221792	      1.25423231	    -13.93703145	    -10.99348962	      0.00000000	      0.00000000	    -57.28877214	     -0.31590059	      5.83385703	     89.65226135	     -1.28655181	     41.65028972	     15.53486669	     19.55614644	      0.00000000	      0.00000000	     89.28148834	      1.21507810	     39.78807884	     16.67529301	     24.31597755	      0.00000000	      0.00000000
      0.01000000	     -7.54445764	     -4.30739633	     -2.41314637	      0.17365128	      1.04745982	     -0.32089494	      0.00000000	      0.50000000	      0.00000000	      0.25000000	     79.69433042	     -0.02228017	      2.24125873	     93.95255708	      1.63978146	     15.71148425	     -6.46912727	      0.00000000	      0.00000000	     45.47185324	    -12.27004004	     -0.68871249	     71.86903254	      1.25435125	    -13.92290227	    -10.88497791	      0.00000000	      0.00000000	    -57.30420952	     -0.28933704	      5.87206360	     89.65346525	     -1.33717466	     42.07221415	     15.42368151	     19.80167578	      0.00000000	      0.00000000	     89.28260048	      1.19414963	     39.98510601	     16.52705758	     24.71613040	      0.00000000	      0.00000000
      0.01500000	     -7.58674201	     -4.22348848	     -2.39790653	      0.17374759	      1.04735774	     -0.32095980	      0.00000000	      0.50000000	      0.00000000	      0.25000000	     79.71387812	     -0.06936416	      2.35592798	     93.96469714	      1.63999335	     15.86994504	     -6.23242306	      0.00000000	      0.00000000	     45.47338871	    -12.14382967	     -0.69541355	     71.85146892	      1.25404471	    -13.88730012	    -11.11019640	      0.00000000	      0.00000000	    -57.28091581	     -0.34271640	      5.79843669	     89.64978343	     -1.13338493	     40.10251229	     15.58172901	     20.34629713	      0.00000000	      0.00000000	     89.25922530	      1.50772092	     38.61221838	     16.43836620	     25.14513807	      0.00000000	      0.00000000
      0.02000000	     -7.53798731	     -4.19086630	     -2.41924250	      0.17370682	      1.04769682	     -0.32085335	      0.00000000	      0.50000000	      0.00000000	      0.25000000	     79.66189744	     -0.11021808	      2.33846166	     93.96527349	      1.64000340	     15.90676928	     -6.37419883	      0.00000000	      0.00000000	     45.35133314	    -12.09797252	     -0.73736613	     71.79667453	      1.25308836	    -13.79813450	    -10.98557499	      0.00000000	      0.00000000	    -57.34432073	     -0.36467619	      5.76845738	     89.64851945	     -1.00920653	     39.06687935	     15.74036547	     21.10408124	      0.00000000	      0.00000000	     89.26869659	      1.64111472	     37.91569825	     16.21495003	     25.80595205	      0.00000000	      0.00000000
      0.02500000	     -7.53721968	     -4.25613334	     -2.46229523	      0.17371937	      1.04769341	     -0.32068599	      0.00000000	      0.50000000	      0.00000000	      0.25000000	     79.66089122	     -0.03187236	      2.30591277	     93.97624022	      1.64019481	     15.85752163	     -6.30889740	      0.00000000	      0.00000000	     45.33962230	    -12.20708205	     -0.72140234	     71.80915426	      1.25330617	    -13.68823630	    -10.94619866	      0.00000000	      0.00000000	    -57.34717943	     -0.35373916	      5.86071926	     89.64452329	     -1.00612197	     38.16654005	     15.66604917	     21.66353822	      0.00000000	      0.00000000	     89.26134088	      1.65984545	     37.27726149	     16.21779889	     26.39616108	      0.00000000	      0.00000000
      0.03000000	     -7.56436430	     -4.32217325	     -2.46612037	      0.17372395	      1.04756630	     -0.32064305	      0.00000000	      0.50000000	      0.00000000	      0.25000000	     79.69612736	     -0.01487364	      2.20631448	     93.95953658	      1.63990328	     15.78817842	     -6.38394216	      0.00000000	      0.00000000	     45.38351631	    -12.27852871	     -0.67243589	     71.86448372	      1.25427186	    -13.52882766	    -10.81410437	      0.00000000	      0.00000000	    -57.25740826	     -0.31339807	      5.87487972	     89.65327622	     -1.41049304	     43.10174349	     14.94903570	     20.86329767	      0.00000000	      0.00000000	     89.27176089	      1.16904930	     40.92712002	     15.72331463	     27.23650216	      0.00000000	      0.00000000
